<?xml version="1.0" encoding="UTF-8"?><svg id="Layer_1" xmlns="http://www.w3.org/2000/svg" xmlns:xlink="http://www.w3.org/1999/xlink" viewBox="0 0 770.14 238.15"><defs><style>.cls-1{fill:none;}.cls-1,.cls-2,.cls-3{stroke-width:0px;}.cls-2{fill:url(#radial-gradient);}</style><radialGradient id="radial-gradient" cx="639.6" cy="32.88" fx="628.15" fy="32.88" r="29.73" gradientUnits="userSpaceOnUse"><stop offset=".17" stop-color="#fff" stop-opacity=".9"/><stop offset=".2" stop-color="#daf2fb" stop-opacity=".91"/><stop offset=".25" stop-color="#a1dff7" stop-opacity=".94"/><stop offset=".3" stop-color="#70cef3" stop-opacity=".96"/><stop offset=".36" stop-color="#48c1ef" stop-opacity=".97"/><stop offset=".41" stop-color="#28b6ed" stop-opacity=".98"/><stop offset=".46" stop-color="#12aeeb" stop-opacity=".99"/><stop offset=".51" stop-color="#05aaea" stop-opacity="1"/><stop offset=".56" stop-color="#01a9ea"/><stop offset=".81" stop-color="#1573c2"/></radialGradient></defs><path class="cls-3" d="m0,209.53h7.6c4.1,0,7.55,1.3,10.35,3.9,2.8,2.6,4.2,5.99,4.2,10.17s-1.4,7.57-4.2,10.17c-2.8,2.6-6.25,3.9-10.35,3.9H0v-28.15Zm3.7,24.85h3.9c3.14,0,5.73-.99,7.78-2.98,2.05-1.98,3.08-4.58,3.08-7.8s-1.03-5.82-3.08-7.8c-2.05-1.98-4.64-2.98-7.78-2.98h-3.9v21.55Z"/><path class="cls-3" d="m41.45,234.37v3.3h-14.07v-28.15h13.67v3.3h-9.97v7.44h8.97v3.22h-8.97v10.9h10.37Z"/><path class="cls-3" d="m62.52,238.15h-.8l-8.32-20.59-5.51,20.59-3.62-1,8.2-28.11h.8l8.85,20.63,8.85-20.63h.8l8.2,28.11-3.62,1-5.51-20.59-8.32,20.59Z"/><path class="cls-3" d="m86.29,233.97c-2.87-2.81-4.3-6.27-4.3-10.37s1.44-7.55,4.32-10.35c2.88-2.8,6.35-4.2,10.39-4.2s7.51,1.4,10.39,4.2c2.88,2.8,4.32,6.25,4.32,10.35s-1.44,7.55-4.32,10.35c-2.88,2.8-6.35,4.2-10.39,4.2s-7.52-1.39-10.41-4.18Zm2.61-18.38c-2.15,2.17-3.22,4.84-3.22,8s1.08,5.83,3.24,8c2.16,2.17,4.75,3.26,7.78,3.26s5.62-1.09,7.78-3.26c2.16-2.17,3.24-4.84,3.24-8s-1.08-5.83-3.24-8c-2.16-2.17-4.75-3.26-7.78-3.26s-5.63,1.09-7.8,3.26Z"/><path class="cls-3" d="m130.15,209.04c3.97,0,7.38,1.35,10.25,4.06l-2.49,2.49c-2.12-2.17-4.7-3.26-7.76-3.26s-5.62,1.09-7.78,3.26c-2.16,2.17-3.24,4.84-3.24,8s1.08,5.83,3.24,8c2.16,2.17,4.75,3.26,7.78,3.26s5.64-1.09,7.76-3.26l2.49,2.49c-2.87,2.71-6.29,4.06-10.25,4.06s-7.51-1.4-10.39-4.2c-2.88-2.8-4.32-6.25-4.32-10.35s1.44-7.55,4.32-10.35c2.88-2.8,6.35-4.2,10.39-4.2Z"/><path class="cls-3" d="m148.93,212.82v24.85h-3.7v-28.15h5.51c2.87,0,5.11.73,6.73,2.19,1.62,1.46,2.43,3.4,2.43,5.81,0,3.48-1.64,5.88-4.91,7.2l7.72,11.38-3.02,2.05-9.77-14.96.28-1.05h.36c1.66,0,3.02-.43,4.06-1.31,1.05-.87,1.57-1.99,1.57-3.36s-.53-2.52-1.59-3.38c-1.06-.86-2.46-1.29-4.2-1.29h-1.49Z"/><path class="cls-3" d="m175.75,209.04h.8l11.62,28.15-3.46.96-3.02-7.56h-11.14l-2.98,7.56-3.46-.96,11.62-28.15Zm.4,7.56l-4.26,10.7h8.48l-4.22-10.7Z"/><path class="cls-3" d="m187.97,212.82v-3.3h17.37v3.3h-6.84v24.85h-3.7v-24.85h-6.84Z"/><path class="cls-3" d="m209.76,209.53h3.7v28.15h-3.7v-28.15Z"/><path class="cls-3" d="m218.13,237.67l-.44-.76,12.87-24.08h-11.18v-3.3h16.2l.44.76-12.91,24.08h13.47v3.3h-18.46Z"/><path class="cls-3" d="m241,209.53h3.7v28.15h-3.7v-28.15Z"/><path class="cls-3" d="m273.77,238.15l-18.54-20.95v20.47h-3.7v-28.35l.96-.28,18.54,20.95v-20.47h3.7v28.35l-.97.28Z"/><path class="cls-3" d="m294.44,238.15c-3.97,0-7.37-1.41-10.21-4.22-2.84-2.81-4.26-6.26-4.26-10.33s1.44-7.55,4.32-10.35c2.88-2.8,6.35-4.2,10.39-4.2,2.36,0,4.57.52,6.63,1.55,2.06,1.03,3.78,2.45,5.15,4.24l-2.85,2.13c-1.02-1.42-2.31-2.55-3.88-3.38-1.57-.83-3.25-1.25-5.05-1.25-3.03,0-5.62,1.09-7.78,3.26-2.16,2.17-3.24,4.84-3.24,8s1.06,5.8,3.18,7.98c2.12,2.18,4.65,3.28,7.6,3.28,2.65,0,4.8-.75,6.43-2.25,1.63-1.5,2.63-3.46,2.98-5.87h-7.6v-3.3h11.58v1.17c0,4.02-1.28,7.28-3.84,9.79-2.56,2.51-5.74,3.76-9.55,3.76Z"/><path class="cls-3" d="m347.15,238.15l-18.54-20.95v20.47h-3.7v-28.35l.96-.28,18.54,20.95v-20.47h3.7v28.35l-.97.28Z"/><path class="cls-3" d="m368.62,234.37v3.3h-14.07v-28.15h13.67v3.3h-9.97v7.44h8.97v3.22h-8.97v10.9h10.37Z"/><path class="cls-3" d="m371.44,212.82v-3.3h17.37v3.3h-6.84v24.85h-3.7v-24.85h-6.84Z"/><path class="cls-3" d="m409.07,209.04h.8l7.72,20.71,7.4-20.71,3.74,1-10.74,28.11h-.8l-7.72-19.94-7.72,19.94h-.8l-10.74-28.11,3.74-1,7.4,20.71,7.72-20.71Z"/><path class="cls-3" d="m434.44,233.97c-2.87-2.81-4.3-6.27-4.3-10.37s1.44-7.55,4.32-10.35c2.88-2.8,6.35-4.2,10.39-4.2s7.51,1.4,10.39,4.2c2.88,2.8,4.32,6.25,4.32,10.35s-1.44,7.55-4.32,10.35c-2.88,2.8-6.35,4.2-10.39,4.2s-7.52-1.39-10.41-4.18Zm2.61-18.38c-2.15,2.17-3.22,4.84-3.22,8s1.08,5.83,3.24,8c2.16,2.17,4.75,3.26,7.78,3.26s5.62-1.09,7.78-3.26c2.16-2.17,3.24-4.84,3.24-8s-1.08-5.83-3.24-8c-2.16-2.17-4.75-3.26-7.78-3.26s-5.63,1.09-7.8,3.26Z"/><path class="cls-3" d="m468.5,212.82v24.85h-3.7v-28.15h5.51c2.87,0,5.11.73,6.73,2.19,1.62,1.46,2.43,3.4,2.43,5.81,0,3.48-1.64,5.88-4.91,7.2l7.72,11.38-3.02,2.05-9.77-14.96.28-1.05h.36c1.66,0,3.02-.43,4.06-1.31,1.05-.87,1.57-1.99,1.57-3.36s-.53-2.52-1.59-3.38c-1.06-.86-2.46-1.29-4.2-1.29h-1.49Z"/><path class="cls-3" d="m490.01,209.53v13.79l11.78-14.27,2.81,2.29-10.05,11.98,11.5,12.22-2.81,2.61-13.23-14.84v14.35h-3.7v-28.15h3.7Z"/><path class="cls-3" d="m530.94,209.04h.8l11.62,28.15-3.46.96-3.02-7.56h-11.14l-2.98,7.56-3.46-.96,11.62-28.15Zm.4,7.56l-4.26,10.7h8.48l-4.22-10.7Z"/><path class="cls-3" d="m562.06,227.86v-18.33h3.7v18.38c0,3.14-.95,5.63-2.83,7.48s-4.18,2.77-6.86,2.77-4.97-.92-6.86-2.77-2.83-4.34-2.83-7.48v-18.38h3.7v18.33c0,2.2.56,3.91,1.67,5.15,1.11,1.23,2.55,1.85,4.32,1.85s3.21-.62,4.32-1.85c1.11-1.23,1.67-2.95,1.67-5.15Z"/><path class="cls-3" d="m569.78,212.82v-3.3h17.37v3.3h-6.84v24.85h-3.7v-24.85h-6.84Z"/><path class="cls-3" d="m593.06,233.97c-2.87-2.81-4.3-6.27-4.3-10.37s1.44-7.55,4.32-10.35c2.88-2.8,6.35-4.2,10.39-4.2s7.51,1.4,10.39,4.2c2.88,2.8,4.32,6.25,4.32,10.35s-1.44,7.55-4.32,10.35c-2.88,2.8-6.35,4.2-10.39,4.2s-7.52-1.39-10.41-4.18Zm2.61-18.38c-2.15,2.17-3.22,4.84-3.22,8s1.08,5.83,3.24,8c2.16,2.17,4.75,3.26,7.78,3.26s5.62-1.09,7.78-3.26c2.16-2.17,3.24-4.84,3.24-8s-1.08-5.83-3.24-8c-2.16-2.17-4.75-3.26-7.78-3.26s-5.63,1.09-7.8,3.26Z"/><path class="cls-3" d="m638.46,238.15h-.8l-8.32-20.59-5.51,20.59-3.62-1,8.2-28.11h.8l8.85,20.63,8.85-20.63h.8l8.2,28.11-3.62,1-5.51-20.59-8.32,20.59Z"/><path class="cls-3" d="m668.94,209.04h.8l11.62,28.15-3.46.96-3.02-7.56h-11.14l-2.98,7.56-3.46-.96,11.62-28.15Zm.4,7.56l-4.26,10.7h8.48l-4.22-10.7Z"/><path class="cls-3" d="m681.16,212.82v-3.3h17.37v3.3h-6.84v24.85h-3.7v-24.85h-6.84Z"/><path class="cls-3" d="m702.95,209.53h3.7v28.15h-3.7v-28.15Z"/><path class="cls-3" d="m716.58,233.97c-2.87-2.81-4.3-6.27-4.3-10.37s1.44-7.55,4.32-10.35c2.88-2.8,6.35-4.2,10.39-4.2s7.51,1.4,10.39,4.2c2.88,2.8,4.32,6.25,4.32,10.35s-1.44,7.55-4.32,10.35c-2.88,2.8-6.35,4.2-10.39,4.2s-7.52-1.39-10.41-4.18Zm2.61-18.38c-2.15,2.17-3.22,4.84-3.22,8s1.08,5.83,3.24,8c2.16,2.17,4.75,3.26,7.78,3.26s5.62-1.09,7.78-3.26c2.16-2.17,3.24-4.84,3.24-8s-1.08-5.83-3.24-8c-2.16-2.17-4.75-3.26-7.78-3.26s-5.63,1.09-7.8,3.26Z"/><path class="cls-3" d="m769.17,238.15l-18.54-20.95v20.47h-3.7v-28.35l.96-.28,18.54,20.95v-20.47h3.7v28.35l-.97.28Z"/><path class="cls-3" d="m.72,181.69h43.41v-64.96l64.34,64.96h55.5s-24.19-16.4-27.77-44.12c-3.58-27.73,11.45-50.8,27.19-60.64h-54.86v64.55L43.83,76.62H.78l-.06,105.06Z"/><path class="cls-3" d="m263.33,76.88v-28.76h28.04v28.71h24.6v28h-24.69v18.96c0,15.38,5.46,27.55,24.15,29.52v28.26s-20.93.36-36.07-14.79c-15.15-15.15-16.22-31.6-16.22-38.4v-23.61h-5.49s-5.25-15.86-23.02-27.91h28.7Z"/><path class="cls-3" d="m323.12,76.8v28.08h66.9c18.48,0,26.95,8.71,28.38,23.14,1.43,14.43-10.14,25.4-26.24,25.4h-69.17v28.08h63.68c20.39,0,38.94-2.27,55.22-29.81,16.28-27.55-5.55-55.99-12.52-60.82,0,0,20.03-14.85,16.82-44.01-3.22-29.16-27.37-46.87-52.77-46.87h-70.12v28.08h70.33c13.42,0,24.3,10.88,24.3,24.3h0c0,13.41-10.86,24.28-24.26,24.3l-70.54.11Z"/><path class="cls-3" d="m524.64,79.96s-14.64,9.18-21.44,26.24c0,0-7.99,1.31-13.22,8.02-5.23,6.71-5.55,12.52-5.55,17.35v50h-28.07v-47.23c0-18.6,3.31-28.5,14.76-41.14,11.45-12.64,33.93-20.63,53.52-13.24Z"/><path class="cls-3" d="m611.54,123.16v12.47c.25-2.05.39-4.12.39-6.23s-.14-4.19-.39-6.23Z"/><path class="cls-1" d="m559.49,105.36c-13.37,0-24.21,10.76-24.21,24.03s10.84,24.03,24.21,24.03,23.12-9.72,24.12-22.07v-4.1c-1.1-12.27-11.48-21.89-24.12-21.89Z"/><path class="cls-3" d="m583.43,76.5l.02,6.59c-7.18-3.67-15.33-5.76-23.96-5.76-28.96,0-52.44,23.31-52.44,52.06s23.48,52.06,52.44,52.06c8.76,0,17.01-2.14,24.27-5.91v.13s0,5.9,0,5.9h27.79v-105.06h-28.11Zm-23.94,76.92c-13.37,0-24.21-10.76-24.21-24.03s10.84-24.03,24.21-24.03c12.64,0,23.02,9.62,24.11,21.89v4.1c-.99,12.35-11.4,22.07-24.11,22.07Z"/><path class="cls-3" d="m249.69,113.86s-27.82,27.73-33.45,33.36c-5.63,5.63-14.4,7.78-23.79,5.28l51.43-51.43s-10.38-18.87-34.08-23.25c-23.7-4.38-44.09,7.39-54.11,23.49-10.02,16.1-14.49,42.87,8.41,66.31,22.9,23.43,59.57,14.67,73.88-2.15,14.31-16.82,16.99-34.35,11.72-51.61Zm-70.51,2.59c6.14-9.9,19.14-14.03,30.44-9.28l-31.93,32s-4.65-12.82,1.49-22.72Z"/><rect class="cls-3" x="624.54" y="76.74" width="28.08" height="104.83"/><path class="cls-3" d="m664.79,76.79h28.22v6.53s10.33-6.4,23.12-6.4,28.98,5.1,40.16,17.71,13.21,25.76,13.21,45.56v41.38h-28.26v-51.82c0-13.6-11.03-24.63-24.63-24.63h0c-13.6,0-24.63,11.03-24.63,24.63v51.7h-27.19v-104.66Z"/><circle class="cls-2" cx="635.75" cy="35.36" r="23.82"/></svg>